/* XPM */
static char *d89e74a82d17432e9e817300b58bbebbEYp1lAMr5mymjmgA[] = {
/* columns rows colors chars-per-pixel */
"64 64 62 1 ",
"  c #050303",
". c #0B0606",
"X c #0F0909",
"o c #150D0D",
"O c #180F0F",
"+ c #171010",
"@ c #1D1313",
"# c #221717",
"$ c #241919",
"% c #2A1D1D",
"& c #2F2020",
"* c #342323",
"= c #392727",
"- c #3D2929",
"; c #422D2D",
": c #463030",
"> c #4B3434",
", c #503737",
"< c #553B3B",
"1 c #5A3E3E",
"2 c #5E4141",
"3 c #654646",
"4 c #684747",
"5 c #674848",
"6 c #694949",
"7 c #734F4F",
"8 c #744F4F",
"9 c #735050",
"0 c #765252",
"q c #785252",
"w c #7B5555",
"e c #7C5555",
"r c #7F5959",
"t c #825A5A",
"y c #845B5B",
"u c #855C5C",
"i c #8A5F5F",
"p c #8B6060",
"a c #8E6363",
"s c #8F6464",
"d c #936666",
"f c #946666",
"g c #976969",
"h c #996B6B",
"j c #9A6C6C",
"k c #9D6E6E",
"l c #A06F6F",
"z c #A27171",
"x c #A47272",
"c c #A77474",
"v c #A97676",
"b c #AB7878",
"n c #AD7979",
"m c #B17B7B",
"M c #B47D7D",
"N c #B78080",
"B c #BB8383",
"V c #BC8484",
"C c #C08686",
"Z c #C78B8B",
"A c #CA8E8E",
"S c #D39494",
/* pixels */
"*;-*X;;-=**%o;;;--=%X>;--*X>;;;-*o,:;----*%:;;-$=;;;-=$*;----*%@",
"6552#6555333#7353632@03533@r33563#u6553361*5556>663355>63555553-",
"2633$6535553#w366533@w5553@d36633#i5635332>3633>035663>65553335-",
"w533$6553355#r535563@u5663@f53356#d5555533<3553>t55655>w6555553;",
"0553$0655535#d633553@s5535@d63333$x555563335655,t55336,i6553533>",
"p553%d635533$k635553@h3633@n55565$Z656555387655,h66535<f5335555:",
"1e76 dfguty7Xta0e78<.7t70<.wtwp07.igfhayu6Xi000<1hdi0q:2h07062>%",
"*1<1<1,,,>&-1<,#91<<<>@111111<>@<<<<<,,>>;,3333221>;33331>13333*",
"6355663333-1533%d63353$65353533#3535535351066556661<555551>5556-",
"7656565353;,565%g53355$05535353$w563365552065656551256555265355-",
"w555656565:6565%k36333$e5555363#r6353556530035535523535332r3535;",
"u633535653>3555*k35355%d5656353$u3555665530p53655520633652e3565;",
"qNzddpae39,thre*Bgggpu;Abxcgfaa$mvdfspuer6>Czghdait3cufuue7hatp>",
" oooooooooX%***%%%#+**%%$$+==*==*%@****&%$@%*****%@%****O==***$@",
"1333233221*36553653%p65353&3355533*9556353*6653533&35565*336533=",
"3355555665-q5355535*d55335-3355556*p533653-3555335*65355*655655-",
"0555336366;y5555355=a35565-6555555*a555555-6555666-w5655-663633-",
"e363655555;a5533535-d63533-6353563-d336633;6556553-75355-a65635;",
"g635556553>v5553553;l65536;7635556-g356655:t335553-a3563;d66353;",
"3xhjpau777;yvkdara0;idut97-e72>;;>%tiuye6w>6uwe6<3%6t3>>%7e6e26;",
"121>13232221%i3322<$<21211<<<<,,,,>>#3222<$131>:3221:;211111<<>*",
"055175365366*d55553$3555555353656353$63366%365<95353<6553355535-",
"753<03335556*a53335$3556553533533363$75565%355<63335<6555565535;",
"a561r5353536-h53335$e363353533555555$r5566*9551055651u633555553;",
"a632h5356553;k53653%p565535556333565%s3653*6562065551h535556555>",
"d762ncgfdut6;Maip0i-nkhuuauttu366522#gtw03*hpt<qa0791wxfddat733;",
"X$##$#####@@$$#o;%%$$$o**%%$$$$X$%$$$$$$$$:;;----=&=;---*%%;;;-@",
"<665333532*;532$w33552$d5533531$t55553333>35555336,055555<>6535*",
"3555555553-;553$d55553$g6335632$d35556353166553533<q65563<;3553=",
"e555336333;>556$d65563$h6356333$d535353351063533631r53555123356-",
"u555565555:>555$g33553%k5555553$k553335352e05633631y553362,3355-",
"k936655553>3535%h53553&V5563533$B556655552eh5335352d65365235356;",
",xhiduuqw1*6pte*xaaaat$Mxdhaadu@fvpipuut03*vxiiuue6=auyu03>i031=",
">21>%21<<<,>@32111<:@3211>#6111<>$32212<1>*3111=6221<<*>221<1<,%",
"<55136536552$6555362$66562$665333%03563652-3556:u35555:,5556556*",
"155266655533$6535532$65532$e53553%r6556552:3655>i55535:13355633;",
"<53306556653%6565352$w5353$i55353%a3656552-5353>d53355>35555536-",
"q55309353653%r636353$p3363$g55555%g353536315563>k55355>q5365565;",
"aggr2VMbzkgf$Nzhjfg7#Mkghw#Vcvgfg%SMvnkgga2kdge3zNvzad3gjgdapw7;",
"%=*==**%@*=**%@=*=*$*;-*#&--*%@*=*=&&%%%%$-*==*&%%%$$$%$$#*;--=#",
"e3366555=75552,5556<;336=65563*w55356355<>336533555556533>,5533-",
"t5555353-75563355331;535-63355*p5655533322335655533535665<,5535-",
"a5636565-t55336333311655-75553-f5555565536533655553553663<76355;",
"d5535665;r3633r635533556;65355-d653353553e5335566535335551w5555:",
"M5333355>d5533r655530553;w3535;n656355555g656365355333555<i5353>",
"0hdyueu2=80,<3:d731:;iye;00w<<;6tre669>2-;dzieeew70qw9w6;;waut9-",
";33332221<%65553533%653333%w655553%2563533*6655553%05363%p65555*",
">336565333&t3555365%r35533*e655555&6555563=p555553&p5333*d36535=",
">365566353=i5365355*t66553=d566556*3635353=p563563*i5535*d35556=",
"e636635336;a3653565-a33565-a356555*t355633-a356656*a3355-d55365-",
"d535556655:n3665335-d56635-g553536=d353565;k336535-h3355;f55353;",
"0vkjgaatw7:kcnzgsat>llaape:d676266-azhfuu7;agua6w6-te04<-aheu90;",
"33332*63332,,3333>133,<311211<<<-35333333;,6633*635332-13335332%",
"35556-935363e3553,65523635355563,e6535333>13655-q33553;75353353*",
"65535-t55563w5656,05530635535333>t5633566>05655-w35565:03655355=",
"t5555;a5555305635<w5330w35553635<u5353355,w5555;y35555>i3663555-",
"i3556:g53653d3355<w5330p35656535<k6365653,u3636;i53353>k5553535;",
"ajadt,mjddaawxdap6uddw>mlug0t67w<eNghg7uw2ti006;ydudu6<hchghitq-",
"13323221211111<<%6111111<1,,:-3333222:-2321*723221&1222211,-332*",
"7553335335655665%d55355335362,3635565,;5356*i35333*26353553;365*",
"t355365635563366*f35555633333>3655355<<5555*d35563-75535553>535-",
"a335555653353555=j3553535555363533553<>5355-g55535-e35533552535;",
"h555535365565635-n35365355333e73555551,3555;z66555;i66355653335-",
"lfhiep0600331321%Bmzcxxhfgaau3Bjdddua33utq2-mjgat7-hdp0w3223htw-"
};
