/* XPM */
static char *_a399fa4454444f5baee32bfce91e9daDIDdgtsJn3l2uVp9[] = {
/* columns rows colors chars-per-pixel */
"64 64 82 1 ",
"  c #070809",
". c #0B0C0D",
"X c #0D0F10",
"o c #0F1112",
"O c #131415",
"+ c #141718",
"@ c #16191B",
"# c #1A1B1C",
"$ c #171D21",
"% c #1A1E21",
"& c #1D2225",
"* c #1E2529",
"= c #1F282E",
"- c #212324",
"; c #212729",
": c #232A2D",
"> c #262E31",
", c #282F32",
"< c #263135",
"1 c #2A3236",
"2 c #27333A",
"3 c #2D3539",
"4 c #2E383C",
"5 c #313A3E",
"6 c #2D3C43",
"7 c #2F3F49",
"8 c #313D42",
"9 c #303F49",
"0 c #2E4046",
"q c #2F4048",
"w c #324045",
"e c #31434B",
"r c #32434A",
"t c #33434A",
"y c #344248",
"u c #35444A",
"i c #32464E",
"p c #34464D",
"a c #39474D",
"s c #36484F",
"d c #38484F",
"f c #334750",
"g c #354652",
"h c #344850",
"j c #354850",
"k c #364B54",
"l c #364C55",
"z c #374D55",
"x c #384950",
"c c #3A4C52",
"v c #384D56",
"b c #3A4F57",
"n c #3B4F57",
"m c #3A4E59",
"M c #3C5057",
"N c #3A515A",
"B c #3D525B",
"V c #3F535B",
"C c #3B525C",
"Z c #3B545D",
"A c #3D545D",
"S c #3D5660",
"D c #3F5562",
"F c #3F5862",
"G c #40565F",
"H c #405760",
"J c #405963",
"K c #425B64",
"L c #415B66",
"P c #435E68",
"I c #445E69",
"U c #46606A",
"Y c #47616C",
"T c #49646E",
"R c #49646F",
"E c #4A6671",
"W c #4B6974",
"Q c #4D6A76",
"! c #4E6D79",
"~ c #506F7C",
"^ c #52737F",
"/ c #527380",
/* pixels */
"++OOOOOooX.XX......O+o........+##++OOOoX.......*&&&$+OOoXX......",
"63313111111111>;+..>:;;;;*&#O.6>::::;;;;;*&$o..y55555433311>:&X.",
"r33333333331111:&..<:::::>>>>+q1>>>>>>>:::::&..j45555555555555:.",
"j11111111>,>>>::;o.2:><<11333*r4333333111111:X.j:::::::>1113331X",
"j>:::::::::::::::O.6>13333334:f8113333333333>O.N;&&&&&&;*;;;:::o",
"N<;;;::::::::>><1#Oi414545555>jp5555555555553#OJ<&&&&&&*;;;;;;;O",
"S8;::>><111333333&Ojb33333333>zV5454433333333&OPx:&&&&;;;;;;;;;O",
"JWHMxxuw843333333:OzQby844333<zQa855558555555*OPR<;;;::::::;;;:+",
"6LLLLLLJSAbjppr62*O<LJFSVbpr63z^!UJVcu8554443:OP/QUJVbp631<>:::$",
":::;;;;;**&**&#+..OOOOOOOOOOOO:AAAAAZNbzjjr66:O6AAAAAAACNmbjir6*",
"433333333333331>&XO@#OOOOoooooOO53311<>:::;;&#..OOOOOOOOOOO.....",
"w3333333311111>:&OO<:;;;;*&#O.OO6>>:>>>>><,111&.OOOOOOOOOOO.....",
"r1::>>:::::::::;:OO2:::>:>>,>#OO6:::::::::::::;.$&&&$##++OOoX...",
"j<;;;:::::::::::>#O6>>,<11333;O+8::::::::::::::o<3:::::::;;;;*+.",
"z4;;;:::>>>,11133&Or<<3333334>O@j>>>>>>><1,1<<1+<4,1<>>>>>::::;.",
"NH311311333333313;@j6<45455551O@V33333333111111#38113333333333>O",
"b^!QEEYIJGbxpuuw4>@kV333333331+@J33333333333333&4p333333333334<#",
"+OooooOOOOO+++@@@@@b!Vy8553331@@R3133333311<:>>$4b5555555555553*",
"3;;***&#+X.OOO+@@@@<LLJSVbpr82##!41133111133313;4P5555544433333*",
"6::::::>,;XOOO+@@@@@@@@@@@@@@@@#/P5333333333333>4^V885555555555:",
"6:>,<11333##oooX..........  ...#/^EJVbsyww8855414/^QRPHMpyw88441",
"p:13333334**OOOOOOOOOOOOOOoo...#jbbbbbbbxjjju861#iiiiiiiiirq664:",
"V>34555555>>++++@@++++++OOOOOo.############@#@@,1<>::;**&&$#O...",
"I433333333>2++##@@+OO+##++++++.############@@@@4>1>><<<,11111*..",
"EPu84333332r#+##+++OO+++O+++#+.:>;**&&$$##+Oo..4::::::::::::>>O.",
"zLLSAmjr642g$++++OOO++++O++#+O.26::::::::::;;&.6::::::::::::::#.",
".....OOOOO:z&#+#++O++#++O++++O.4u1111111,>>>::or>:::::>>>>>>>>&.",
"OX....XooO=V>+++#+O+###++++##+.4x113333333333<#b31333333313113:.",
">;*&&&#+O.*S9&#+++++#####++##+.4V3333334444451&V43333331111333>.",
"3::::::::&=SSz92>>=*&$####+#++X4J5554545455543;J83333333311<>1:.",
"4:>>,11331$bmmmmkzzjgrrr962<>*#6E8555555544433:Ps,<1111<111111>.",
"w:13333333++OOoOOOOOOOOOOOOOOOO2^Ra885555555551PR83333333333333O",
"b:34455555$*#OOOOOooXXoXX.X... =^/^!WEIHVVbxuy5I/Rbu85433333333#",
"L433333333&>$O+++++++++OOOOOOO.O-------&%#####@jIIIPPLSAVNmbpw8$",
"EA83333333*>*++@#@++O++#++++++oo:-&&&&$$##+##+Oo.OOOOOOOOOO.....",
"FEYILAbjr8:2<+####++O++#+++###Ooy33333333333331;+OO*&#+++Oo.....",
"Oo......ooO66#++++OO++++O++###oox3333333311111,:$OO3::::::;*$X..",
"<;;**&&#+X.67#++++OO++++OO++++oXb<>>>>>>>>>::::;*OO4>:>>>><13&..",
"2:::::::>:o6g&+++#O+##@+++++@#OXV::::::::::::::::OO6>>1111333:..",
"6:>>,11333#6C>+++++++@##++++##+oJ:;;;::::::>><<11+Or1>33345551..",
"r:13333333&6Sj<=$##+++++++++#++oU6:>>1<1313333313$Oju13435443<..",
"b>14455555;6SSSVkggir622<<>=*$#OE!RPJJVbxu8444443-OjL333133331..",
"F833333333;+>>>>>>>>>>>>>>>:;-&#2jjpiiiiiir66662<#Oj^ELGbdw841O.",
"PIy4333333:OOOO>:;*&&&$$##+Oo..w::;;;**&&$##o.O@@OO@2222222<>=..",
"jPPJANjr64>OOO+61:::::::::::;#.b:::::::::::;;oOOOOOOOOOOOO......",
"++++OOOOOoooooO041111111,>>>:;.V13331111111<>#:>:::::;;;*;;*&#o.",
"6::::;;;;;**&#.q8113333333333>OG1113333333331&633333333333331>&X",
"r>>>>>:::::::;#ru3333334444451#P4345445555553:r533333131111<>:*O",
"i3333333111111;ib5554545455543&R5454434344333>r3:::::::::::::::+",
"z3113333333333:iU8555555554433*~x5555555555551i4;;;:::::::::::>&",
"N85555555555543i^Pu88555555555:^!Jxy8855455553jr;;;:::>>>111133;",
"Fu5454343333333q//^!WRPGVbbxuw3YWWEEYIJAVbcpr8bI633333333333333:",
"LUw555558555555@+++++++++++&:;*&&$#++OOoX..OOOi/^!QWEYIJVbxdjy81",
"L^QJVxp85444443&OOOOOOOOOOO<131111111111>&.O+Ooo............. ..",
"6LLLLLLSANmbjrw;OOOOOOOOOOO<::::::::::>>>>#$&OOOOOOOOoOooooX... ",
"O.....OOOOOy3331>::;*&$#+..2::::::::::::::&&=O+++++++++++OOOOOo ",
"1*&&&$#Oo.Xb5555555555555<O6>:::::::::::::**>++##@++++###+++#+O.",
"6::::::::&ob11111133444555;q41111111111311,=7#+##++++++##++###O.",
"8:>>><1133+b;***;;;;;;::>>;i833333111111111>g$++++OO++O++O++#+O ",
"i:11333333$J&&&&&&&**;;;;;&jd33333333331131>g$++#++O+++++O++++O ",
"m:13455555*E:*&&&&;;;;;;;;*zA<<1111,<,>>>>:>m:+++#OO+#@#++++@#+.",
"P433333333*^w;&*;;::::::;:;zE43333333333333>S6#++++O+#@@#+++##+.",
"EV43333333:/Wb631>::::;;;:;z^Iw3333133333333SVr2>**&$##+++++#++X",
"FWYPJVbpw6:!/^^~!QEUPLJANxrj//^!QEUIPJJGVcd6SSSSVmmmzgrrr772>>*+"
};
