/* XPM */
static char *_455c9b091b54609d14e496ee6f6410eIf3siW8MwjnigBuL[] = {
/* columns rows colors chars-per-pixel */
"64 64 47 1 ",
"  c #040404",
". c #070808",
"X c #0B0B0B",
"o c #100F0E",
"O c #10100F",
"+ c #0F1010",
"@ c #141313",
"# c #191616",
"$ c #1A1817",
"% c #171718",
"& c #1C1718",
"* c #171818",
"= c #1E1D1D",
"- c #211E1E",
"; c #241F1F",
": c #281F1F",
"> c #1F201F",
", c #20201F",
"< c #27201F",
"1 c #241F20",
"2 c #1F2121",
"3 c #232121",
"4 c #252121",
"5 c #262423",
"6 c #222424",
"7 c #272525",
"8 c #282323",
"9 c #2B2323",
"0 c #2A2423",
"q c #2B2525",
"w c #2A2727",
"e c #2B2727",
"r c #2D2727",
"t c #2D2827",
"y c #2E2728",
"u c #272828",
"i c #2A2828",
"p c #2C2828",
"a c #2E2B2B",
"s c #2F2C2C",
"d c #312B2B",
"f c #322B2B",
"g c #332B2B",
"h c #342C2B",
"j c #322C2C",
"k c #342D2D",
"l c #393030",
/* pixels */
"#-;@ -4--=$@ 404==;@ -44-# 34444# =44;-=;# -814X@-8---.#4-4---= ",
"$37q 347q7qd 447447p 74qqp u337qd q44q7qqrX34qd=$4q4qp-$744qqrj@",
"$33r 43-334r 7=,333r q-3,r q=333d q3334=3rX=-3q-==343q=$333333d#",
"4,=h 733433d 733333r q333q 73-=3k q-3333-p@=33q-8=333q-$=33,33q=",
"4,=q p-333>q q32347q i33=p i===,d s33=,33hX=33q;<334-4-=33333=q=",
";qqq kqp4qq7.pqqrq77 pqpr7 dqq4pr.kpqqpq0r#i773=;p7q77$8qq733=q=",
"                                          ....     .X     XX..  ",
"-yqpqqrrd= 3qd##qrtpq#$4tkppqqX#qrqq4qrd8 -rdddkpd 3pddjp =jddr ",
"4333,3333q =3q=#-==3q-==33=3=q=,=3=-=473jX4333-33k q3333p.=34qp ",
"8-3=34-3-p =3q-$=-33q;==333-=7===3==-33,r=3343333r@6-4=3q@=433q ",
"8=3334333d =358==3334;-=3-3=34=-=3=,=43-p=-3-4333q#7-,=-r#3333p ",
"q===3=-3=q =344=====74:=333=33=;33-3333>q=q=-3,==4@r===3q#3-=34 ",
";4rq844--4 q37$#pppq3=#prtpi73*@rqrr;4===@=rqrr444@-44q=-X-;=## ",
".@. .      @==-=$=@ #====X $--4;;# #=;=##@ @=-===# @=--= @==-=# ",
"#4prdpdppk.247pdqdk.74dtqk.=4qq44k.=4qqrpdo=qq5r4d =4q7l.=3r7qdo",
"==3-33333pX8333333yX7=3,3d@==3334dX3,--3=r#=33,3=d.=-33po43=33q#",
"--4-4-33=q#4=37333po7=334p@=33333p@32=433p#=33423p@q=--r@43343r=",
"-=3=3333=p=3343-==q#q,=33d#=33333q@6==-3,p=3=333=p#q3=,p=43333d=",
"-pq=====,4#rq7>=3=3#p===-3#7===33q#r4qq3=-#qpq7==3#qr=34#87==34#",
"X###=$#@@@.o#-=$#$@.@=$=#$X@$#@@@@X@$>==$$X@$#%$=#.o$#@@ X*##@#.",
"4qp=*pkppppd 3pdppq 4dqqpqqq5pt44rr4.4pkkd.3pj=#qpjj=#pjpppqpq8 ",
"4,38$443334j.3-333j.=33333=3337474qd.3=34j.=3q-#-3-q4#34333333p.",
"-,44#333334pX3=34=d.=-3333333==3433d.33,-p.334-#=-=43==34333-=q#",
"4340$=-333=p#73,33k.q===343,3==2333k.0-3-po7338-34,34=33333-3=r#",
"4-344=3=33=q#i3===q.q=====3=33===33d.q=335X3-3q,3333403====,==7#",
"=83$-r4-,--;@44-r3-X4rq34q433-=38=$,.34;33@44-#@7==4=o8-=4==-#$.",
"@#&###@o.  ##@.@$$$##.@$-=#$#@.@$#$$##@X..$-44---# $-=-;# =048# ",
"3qdrp7qqd8 3pd==4dqpk=43qrqqqk#=qqpqp7dkk.43qqq44k.7q77qj.3rqpr ",
"=3=333333r 3=p-4=4337=--3=34-p=-=334--33pX3=3-34-p.4=3=,dX-344r ",
"r33--=-=3r i37-7=344q-;33,33,4=4===33-=3r@q=4,343dXq3333jX3333q ",
"q=33333-3p 7=7-r33347---33-33q--====33-=p#q-33343q@33-33q@3--3p ",
"d4qqqpp2=4 i=3=8===33=4q=3=--4=4qirrqq2=3#tqqqppq4#prri2=@qpi33 ",
"X@#@####@o #-$@@-==4=@@-347===@X#$=$$$###Xo=####$#.X#@@##.      ",
"=pd4.qrpdqr= 3dpppd-.4pdd4Xiptqq4Xqrdrddp-@qdqk@-4drrdo=qddpprq ",
"#34q@=3-734k.3=3335r.7335dXq3333qX4343344q@=33p=3=733r=$-334,3d@",
"$43r@=3333-p.3q3,3-t.7337dXp333qkXd343343q@-33r$3333=p=$==33,=p#",
"$34d#23-333p.q3=324d.i333pXq3333dXq3333=3p#3334-83,33q-=3=333-p#",
"4=3q@p-==33q.q3=333p.q==-qX7=333qXr=3====q#==,4-r=-==4=3===,3-q#",
"-7=$.qp44q73 q8q53=-.qq4i=.qq7r44Xrp4qq373@7==$@-q4q-=@-77-3$$$o",
"#---<==# #=--@.=---XX$--.#---#.#-$4=====.@-----==##=##=#@.@---= ",
";4qqp74kX-447d@54qpq@=qkX=q4qk.374qqpppqr$44tq7qpqqqqqppj-#4q4p@",
";32,-33pX==33p@=3334+23q@q=33d@3==-43-33q@-33-343333-=334-$=43r@",
"8=43333q#=33-t#=3=4q$=3p#5333q#q=433--33p#=,33-333-33-==q8$33=p#",
"4=333,3q$==33p#=433p#,,q#3-33p#q,3=33-=3q*33-,-33=-34==3q4$333q=",
"qpipp7=5#q3==4#73-=4#3=3@q3==q#piid733=3q$4q3=2===4===33q83===4$",
"@$##$@@@.X$3,-$--$@@$--=#X$337-==XX$=$*#@.X$===$#..$=-=XX$====@ ",
"4ppkkpjqd=#3qqqrqd4#3p5qpq#=754pp4@4qqrddq@4qqpqk4#3qpp4=34q7q8 ",
"=333333=44#7-3=,378,==3,4q#-3323q4@--433-4=333-338$3=33r$=3333r ",
"4333333334#r333==38-=3-3q4#=33333q#=-=3338$=3-333q=-3338#22333q ",
"83-333,37d#t3333378&==-334#==3344q-=-3,33r===33=4r==333r$23343q ",
"p====23337#d3====34#3=33-4=2=3-=,-=pi=3-33$s=333=3#4=334#i3,==3 ",
"=33===-=$$ =433==-#@=-33$#X#@XXX@@#4=$$##@X3$*#@=$#*@X@@@-#$$#X ",
"$qqpk =qpppr@4qqd=$ppqXqprqprdrr@$4dtpqpd#$rqpkX74pddd@=44qqpqt ",
"$-3-p.33333q#=-3q;$==rX=3334,,4q=,-=-333q===33r#43,337#7=,3333t.",
"==33pX33333p#24374$33d#7=33433-q-=3333>3p-=333p#4=-33r#3=3-333po",
"8,33p=33-33p$=33q4$33p@q-334333q--==3--34-=333q#-=-=3q=4333333p#",
"8=335$7===3q4===33$33r#y==3-3==4=43=3,==3=3===q$-=3=33=r3=====q#",
"====-O4=$$$$@=##$##$$$ 87$=##$3-*@q==$$==#@$===X$=$3=$@$3$#3=$$.",
"=q4qpppqrytpdppr 7pdddpkpprp=X3qjptdp#@3ddk.=qkdpk.=rpkppqqX4dj ",
"3=3333=3433=333p 33353333,=4q@=3-3337<#343dX3-===dX=333333qX=4d.",
"=-33333333343=4q.6=34--33,-4d@=3333=74@-33j@q=,34q#=333332q@33r#",
"43-33=3==33=73,qXp=33---33=3d#=,=33,44#=43t#q3333q@=433=33d@=3r#",
"r3-=3=3=3=33-3=r@j===3==3===7#7=33=-3-==33r#p3-334@3=--=-=p@==q@",
"#=##=#;;-;$@@+@# -8;;;-88<;-$oq0qrq34##4===X-8rq--X;q-3=3$=.8-4@"
};
